<svg height="512" viewBox="0 0 64 64" width="512" xmlns="http://www.w3.org/2000/svg"><g fill-rule="evenodd"><path d="m32 64h-16a16.0007 16.0007 0 0 1 -16-16v-32a16.0007 16.0007 0 0 1 16-16h32a16 16 0 0 1 16 16v32a16 16 0 0 1 -16 16h-6a5 5 0 0 0 -10 0z" fill="#3764b9"/><path d="m30 18h18a9.0006 9.0006 0 0 0 .92-17.954c-.306-.017-.609-.046-.92-.046h-32a16.0007 16.0007 0 0 0 -16 16v32a30.0007 30.0007 0 0 1 30-30" fill="#507dd2"/><path d="m48 32a16 16 0 1 0 16 16v-32a16 16 0 0 1 -16 16" fill="#1e4ba0"/><path d="m52 18a2 2 0 0 1 -2 2h-6a2 2 0 0 0 -2 2v8h7.56a2 2 0 0 1 1.9612 2.392c-.3713 1.857-.8757 4.379-1.2 6a2 2 0 0 1 -1.9612 1.608h-6.36v24h-10v-24h-6a2 2 0 0 1 -2-2v-6a2 2 0 0 1 2-2h6v-8a12 12 0 0 1 12-12h6a2 2 0 0 1 2 2z" fill="#fff"/></g></svg>